<svg height="450" version="1.1" width="605" xmlns="http://www.w3.org/2000/svg" style="position:relative" preserveAspectRatio="xMidYMid meet" id="prefix__main_svg" overflow="hidden"><defs style="-webkit-tap-highlight-color:transparent"><style>@font-face{font-family:blogger_bold;src:url(fonts/blogger.ttf)}</style></defs><text text-anchor="middle" font-family="blogger_bold" font-size="48" style="-webkit-tap-highlight-color:transparent" transform="translate(302.5 306.133)" cursor="move"><tspan dy="0" style="-webkit-tap-highlight-color:transparent">На все руки</tspan></text><path fill="#3c49c0" stroke="#082d8a" d="M319.817 184.999a20 20 0 10-34.64-20 20 20 0 1034.64 20m-81.6-58.66l-10 17.32 18.013 10.4c-3.251 8.63-4.333 17.705-3.567 26.577l-19.993 5.43 4.727 19.01 20.34-5.23c3.859 8.117 9.333 15.434 16.5 21.42l-10.4 18.013 17.32 10 10.4-18.013c8.63 3.251 17.705 4.333 26.627 3.48l5.38 20.08 19.26-5.16-5.293-20.03a62.095 62.095 0 0021.233-16.377l18.013 10.4 10-17.32-18.013-10.4c3.251-8.63 4.334-17.705 3.48-26.627l20.08-5.38-5.16-19.26-20.08 5.38a60.84 60.84 0 00-16.327-21.32l10.4-18.013-17.32-10-10.4 18.013c-8.63-3.251-17.705-4.334-26.577-3.567l-5.43-19.994-19.01 4.728 5.23 20.34c-8.117 3.858-15.434 9.333-21.42 16.5l-18.013-10.4zm84.28 14.02c19.139 11.05 25.69 35.501 14.64 54.64s-35.501 25.69-54.64 14.64-25.69-35.502-14.64-54.64 35.502-25.69 54.64-14.64z" stroke-width="1.99996" style="-webkit-tap-highlight-color:transparent" cursor="move"/></svg>